{"title":"Season of the Witch 2011 DVD9rip English Klam","uid":6460395,"size":1457527704,"categoryP":"video","categoryS":"movies","magnet":"?xt=urn:btih:c831d23ebbf6409d93756aae4652f10ed0ca0a8a&amp;dn=Season+of+the+Witch+2011+DVD9rip+English+Klam&amp;tr=udp%3A%2F%2Ftracker.openbittorrent.com%3A80&amp;tr=udp%3A%2F%2Fopen.demonii.com%3A1337&amp;tr=udp%3A%2F%2Ftracker.coppersurfer.tk%3A6969&amp;tr=udp%3A%2F%2Fexodus.desync.com%3A6969","seeders":0,"leechers":1,"uploader":"Klambake","files":-1,"time":1307737361,"description":"With: Nicolas Cage, Ron Perlman and Claire Foy\n\nTijdens de zwarte plaag in de 14de eeuw in Europa krijgt een ridder de opdracht om een meisje te vervoeren, dat ervan verdacht wordt een heks te zijn die verantwoordelijk zou zijn voor de plaag...\n\n14th-century knights transport a suspected witch to a monastery, where monks deduce her powers could be the source of the Black Plague. \n\n------------------ Dutch Friends ------------------\n\nYou can find my Friends at: http://www.Film-Test.nl \n                    \n------ They got my dutchs subs ---- and more ------\n\nGeneral:\n\nComplete name                    : Season of the Witch\\Season of the Witch.avi\nFormat                           : AVI\nFormat/Info                      : Audio Video Interleave\nFile size                        : 1.35 GiB\nDuration                         : 1h 30mn\nOverall bit rate                 : 2 130 Kbps\n\nVideo:\n\nFormat                           : MPEG-4 Visual\nFormat profile                   : Simple@L3\nFormat settings, BVOP            : No\nFormat settings, QPel            : No\nFormat settings, GMC             : No warppoints\nFormat settings, Matrix          : Default (H.263)\nCodec ID                         : XVID\nCodec ID/Hint                    : XviD\nDuration                         : 1h 30mn\nBit rate                         : 1 671 Kbps\nWidth                            : 652 pixels\nHeight                           : 352 pixels\nDisplay aspect ratio             : 1.852\nFrame rate                       : 25.000 fps\nColor space                      : YUV\nChroma subsampling               : 4:2:0\nBit depth                        : 8 bits\nScan type                        : Progressive\nBits/(Pixel*Frame)               : 0.291\nStream size                      : 1.06 GiB (78%)\nWriting library                  : XviD 1.1.2 (UTC 2006-11-01)\n\nAudio:\n\nFormat                           : AC-3\nFormat/Info                      : Audio Coding 3\nMode extension                   : CM (complete main)\nCodec ID                         : 2000\nDuration                         : 1h 30mn\nBit rate mode                    : Constant\nBit rate                         : 448 Kbps\nChannel(s)                       : 6 channels\nChannel positions                : Front: L C R, Side: L R, LFE\nSampling rate                    : 48.0 KHz\nBit depth                        : 16 bits\nStream size                      : 291 MiB (21%)\nAlignment                        : Aligned on interleaves\nInterleave, duration             : 32 ms (0.80 video frame)\nInterleave, preload duration     : 480 ms\n","torrent":{"xt":"urn:btih:c831d23ebbf6409d93756aae4652f10ed0ca0a8a","amp;dn":"Season+of+the+Witch+2011+DVD9rip+English+Klam","amp;tr":["udp%3A%2F%2Ftracker.openbittorrent.com%3A80","udp%3A%2F%2Fopen.demonii.com%3A1337","udp%3A%2F%2Ftracker.coppersurfer.tk%3A6969","udp%3A%2F%2Fexodus.desync.com%3A6969"],"infoHash":"c831d23ebbf6409d93756aae4652f10ed0ca0a8a","infoHashBuffer":{"type":"Buffer","data":[200,49,210,62,187,246,64,157,147,117,106,174,70,82,241,14,208,202,10,138]},"announce":[],"urlList":[]}}